<svg width="24" height="24" viewBox="0 0 24 24" fill="none" xmlns="http://www.w3.org/2000/svg">
<path d="M1.55853 2.97375C1.25328 2.025 2.24103 1.1775 3.13278 1.623L21.8783 10.9942C22.7078 11.409 22.7078 12.5917 21.8783 13.0072L3.13278 22.3785C2.24178 22.824 1.25328 21.9765 1.55853 21.0277L4.46253 12.0007L1.55853 2.97375ZM5.79603 12.7507L3.26028 20.6377L20.538 12.0007L3.25953 3.36375L5.79753 11.25H14.25C14.4489 11.25 14.6397 11.329 14.7804 11.4697C14.921 11.6103 15 11.8011 15 12C15 12.1989 14.921 12.3897 14.7804 12.5303C14.6397 12.671 14.4489 12.75 14.25 12.75H5.79753L5.79603 12.7507Z" fill="#EC5C2E"/>
</svg>
