<svg width="60" height="60" viewBox="0 0 60 60" fill="none" xmlns="http://www.w3.org/2000/svg">
<g id="majesticons:home-line">
<path id="Vector" d="M50 47.5V26.25C50 25.8619 49.9096 25.4791 49.7361 25.132C49.5625 24.7848 49.3105 24.4829 49 24.25L31.5 11.125C31.0673 10.8004 30.5409 10.625 30 10.625C29.4591 10.625 28.9327 10.8004 28.5 11.125L11 24.25C10.6895 24.4829 10.4375 24.7848 10.2639 25.132C10.0904 25.4791 10 25.8619 10 26.25V47.5C10 48.163 10.2634 48.7989 10.7322 49.2678C11.2011 49.7366 11.837 50 12.5 50H22.5C23.163 50 23.7989 49.7366 24.2678 49.2678C24.7366 48.7989 25 48.163 25 47.5V40C25 39.337 25.2634 38.7011 25.7322 38.2322C26.2011 37.7634 26.837 37.5 27.5 37.5H32.5C33.163 37.5 33.7989 37.7634 34.2678 38.2322C34.7366 38.7011 35 39.337 35 40V47.5C35 48.163 35.2634 48.7989 35.7322 49.2678C36.2011 49.7366 36.837 50 37.5 50H47.5C48.163 50 48.7989 49.7366 49.2678 49.2678C49.7366 48.7989 50 48.163 50 47.5Z" fill="#EC5C2E" stroke="#EC5C2E" stroke-width="2" stroke-linecap="round" stroke-linejoin="round"/>
</g>
</svg>
