<svg width="60" height="60" viewBox="0 0 60 60" fill="none" xmlns="http://www.w3.org/2000/svg">
<g id="material-symbols:travel">
<path id="Vector" d="M46.5698 48.0981L43.7442 50.9237L33.4391 32.0108L33.1192 31.4237L32.6464 31.8964L22.8964 41.6464L22.7203 41.8226L22.7548 42.0693L23.5953 48.0726L21.6184 50.0495L17.5637 42.6351L17.4934 42.5066L17.3649 42.4363L9.95053 38.3816L11.9274 36.4047L17.9307 37.2452L18.1774 37.2797L18.3536 37.1036L28.1036 27.3536L28.5763 26.8808L27.9892 26.5609L9.07629 16.2558L11.9019 13.4302L35.5008 19.4843L35.7749 19.5546L35.9763 19.3558L45.7263 9.73083L45.7286 9.72855C46.339 9.11808 47.085 8.8125 48 8.8125C48.915 8.8125 49.661 9.11808 50.2714 9.72855C50.8819 10.339 51.1875 11.085 51.1875 12C51.1875 12.915 50.8819 13.661 50.2714 14.2714L50.2692 14.2737L40.6442 24.0237L40.4454 24.2251L40.5157 24.4992L46.5698 48.0981Z" fill="#23856D" stroke="#23856D"/>
</g>
</svg>
